grf
version=1
nRows=14
nColumns=37
inDegrees=no
endheader
time	ground_force_1_vx	ground_force_1_vy	ground_force_1_vz	ground_force_1_px	ground_force_1_py	ground_force_1_pz	ground_moment_1_mx	ground_moment_1_my	ground_moment_1_mz	ground_force_2_vx	ground_force_2_vy	ground_force_2_vz	ground_force_2_px	ground_force_2_py	ground_force_2_pz	ground_moment_2_mx	ground_moment_2_my	ground_moment_2_mz	ground_force_3_vx	ground_force_3_vy	ground_force_3_vz	ground_force_3_px	ground_force_3_py	ground_force_3_pz	ground_moment_3_mx	ground_moment_3_my	ground_moment_3_mz	ground_force_4_vx	ground_force_4_vy	ground_force_4_vz	ground_force_4_px	ground_force_4_py	ground_force_4_pz	ground_moment_4_mx	ground_moment_4_my	ground_moment_4_mz
      4.24000000	      0.00000000	     -0.00000000	      0.00000000	      0.00000000	      0.00000000	      0.00000000	      0.00000000	      0.00000000	      0.00000000	     -7.70682621	     -1.93276060	   -355.43649292	   -344.38198899	  -1077.78377837	      0.00000000	     -0.00000000	      0.00000000	   7829.61081045	      6.70064574	      3.31503070	   -422.35754395	   -328.12296824	   -755.19929707	      0.00000000	      0.00000000	     -0.00000000	  -7248.08413896	      0.00000000	     -0.00000000	      0.00000000	      0.00000000	      0.00000000	      0.00000000	      0.00000000	      0.00000000	      0.00000000
      4.25000000	      0.00000000	     -0.00000000	      0.00000000	      0.00000000	      0.00000000	      0.00000000	      0.00000000	      0.00000000	      0.00000000	     -7.60358906	     -1.11754262	   -354.13131714	   -344.41790855	  -1078.16657720	      0.00000000	      0.00000000	      0.00000000	   8084.41524849	      6.75442769	      2.98440660	   -420.65444946	   -328.38785631	   -756.52909352	      0.00000000	      0.00000000	     -0.00000000	  -7214.81169657	      0.00000000	     -0.00000000	      0.00000000	      0.00000000	      0.00000000	      0.00000000	      0.00000000	      0.00000000	      0.00000000
      4.26000000	      0.00000000	     -0.00000000	      0.00000000	      0.00000000	      0.00000000	      0.00000000	      0.00000000	      0.00000000	      0.00000000	     -8.27535152	     -1.07663381	   -354.78326416	   -343.51356539	  -1080.54656757	      0.00000000	     -0.00000000	      0.00000000	   7890.02627958	      7.00815227	      2.99010025	   -420.72772217	   -328.40377004	   -756.76696434	      0.00000000	      0.00000000	     -0.00000000	  -7259.84572748	      0.00000000	     -0.00000000	      0.00000000	      0.00000000	      0.00000000	      0.00000000	      0.00000000	      0.00000000	      0.00000000
      4.27000000	      0.00000000	     -0.00000000	      0.00000000	      0.00000000	      0.00000000	      0.00000000	      0.00000000	      0.00000000	      0.00000000	     -8.60515404	     -0.94683945	   -353.91531372	   -344.21630413	  -1079.98091445	      0.00000000	      0.00000000	      0.00000000	   7954.45960869	      7.49940660	      2.96876651	   -420.05572510	   -327.85150961	   -756.61893255	      0.00000000	      0.00000000	     -0.00000000	  -7390.41799472	      0.00000000	     -0.00000000	      0.00000000	      0.00000000	      0.00000000	      0.00000000	      0.00000000	      0.00000000	      0.00000000
      4.28000000	      0.00000000	     -0.00000000	      0.00000000	      0.00000000	      0.00000000	      0.00000000	      0.00000000	      0.00000000	      0.00000000	     -8.30414486	     -1.00311661	   -353.34155273	   -343.55994354	  -1079.16942044	      0.00000000	      0.00000000	      0.00000000	   7947.22695141	      7.25347738	      3.20029624	   -419.33111572	   -327.94373651	   -755.96658980	      0.00000000	      0.00000000	     -0.00000000	  -7306.09516218	      0.00000000	     -0.00000000	      0.00000000	      0.00000000	      0.00000000	      0.00000000	      0.00000000	      0.00000000	      0.00000000
      4.29000000	      0.00000000	     -0.00000000	      0.00000000	      0.00000000	      0.00000000	      0.00000000	      0.00000000	      0.00000000	      0.00000000	     -8.45937634	     -0.01560783	   -354.59265137	   -344.03537152	  -1081.29626934	      0.00000000	      0.00000000	      0.00000000	   7930.34887005	      8.17574814	      3.04352427	   -416.59439087	   -328.02629690	   -756.71278804	      0.00000000	      0.00000000	     -0.00000000	  -7424.14226350	      0.00000000	     -0.00000000	      0.00000000	      0.00000000	      0.00000000	      0.00000000	      0.00000000	      0.00000000	      0.00000000
      4.30000000	      0.00000000	     -0.00000000	      0.00000000	      0.00000000	      0.00000000	      0.00000000	      0.00000000	      0.00000000	      0.00000000	     -7.72073698	     -0.07303391	   -353.27679443	   -343.42660364	  -1080.40735687	      0.00000000	      0.00000000	      0.00000000	   8045.71723527	      8.20203716	      3.41146707	   -415.11206055	   -328.08205946	   -756.84872944	      0.00000000	      0.00000000	     -0.00000000	  -7233.44947925	      0.00000000	     -0.00000000	      0.00000000	      0.00000000	      0.00000000	      0.00000000	      0.00000000	      0.00000000	      0.00000000
      4.31000000	      0.00000000	     -0.00000000	      0.00000000	      0.00000000	      0.00000000	      0.00000000	      0.00000000	      0.00000000	      0.00000000	     -7.24152422	     -0.43733591	   -351.73428345	   -344.71192748	  -1079.82203861	      0.00000000	     -0.00000000	      0.00000000	   7837.89549960	      8.76699285	      3.26024766	   -414.73159790	   -328.05703991	   -756.48076356	      0.00000000	      0.00000000	     -0.00000000	  -7423.61705834	      0.00000000	     -0.00000000	      0.00000000	      0.00000000	      0.00000000	      0.00000000	      0.00000000	      0.00000000	      0.00000000
      4.32000000	      0.00000000	     -0.00000000	      0.00000000	      0.00000000	      0.00000000	      0.00000000	      0.00000000	      0.00000000	      0.00000000	     -6.22149563	     -0.35652161	   -351.09472656	   -344.46076585	  -1080.16988994	      0.00000000	      0.00000000	     -0.00000000	   7960.60523524	      8.56454592	      3.28365013	   -414.34622192	   -328.14999504	   -755.96598650	      0.00000000	     -0.00000000	     -0.00000000	  -7248.54697875	      0.00000000	     -0.00000000	      0.00000000	      0.00000000	      0.00000000	      0.00000000	      0.00000000	      0.00000000	      0.00000000
      4.33000000	      0.00000000	     -0.00000000	      0.00000000	      0.00000000	      0.00000000	      0.00000000	      0.00000000	      0.00000000	      0.00000000	     -5.39284182	     -0.81600726	   -350.16052246	   -345.12658013	  -1079.77379132	      0.00000000	      0.00000000	     -0.00000000	   8015.01001526	      8.16954261	      3.36433745	   -413.04638672	   -328.53567375	   -755.65248669	      0.00000000	      0.00000000	     -0.00000000	  -7143.34401778	      0.00000000	     -0.00000000	      0.00000000	      0.00000000	      0.00000000	      0.00000000	      0.00000000	      0.00000000	      0.00000000
      4.34000000	      0.00000000	     -0.00000000	      0.00000000	      0.00000000	      0.00000000	      0.00000000	      0.00000000	      0.00000000	      0.00000000	     -4.79534340	     -0.65494138	   -349.96554565	   -344.55670484	  -1079.25914242	      0.00000000	     -0.00000000	      0.00000000	   7935.02802384	      8.53302125	      3.13124105	   -411.84085083	   -328.04413399	   -756.06628822	      0.00000000	      0.00000000	     -0.00000000	  -7098.68385692	      0.00000000	     -0.00000000	      0.00000000	      0.00000000	      0.00000000	      0.00000000	      0.00000000	      0.00000000	      0.00000000
      4.35000000	      0.00000000	     -0.00000000	      0.00000000	      0.00000000	      0.00000000	      0.00000000	      0.00000000	      0.00000000	      0.00000000	     -4.62966919	     -0.54405147	   -350.54946899	   -344.44345038	  -1079.90497018	      0.00000000	      0.00000000	      0.00000000	   8033.39055922	      8.83104160	      2.96307487	   -412.38204956	   -328.13537290	   -755.74499816	      0.00000000	      0.00000000	     -0.00000000	  -7247.73670891	      0.00000000	     -0.00000000	      0.00000000	      0.00000000	      0.00000000	      0.00000000	      0.00000000	      0.00000000	      0.00000000
      4.36000000	      0.00000000	     -0.00000000	      0.00000000	      0.00000000	      0.00000000	      0.00000000	      0.00000000	      0.00000000	      0.00000000	     -4.76625919	     -0.61439586	   -351.30090332	   -344.73986025	  -1078.91967912	      0.00000000	     -0.00000000	      0.00000000	   7913.05922356	      8.41864229	      2.77771042	   -409.39776611	   -327.51759954	   -756.46925197	      0.00000000	     -0.00000000	     -0.00000000	  -7059.24798765	      0.00000000	     -0.00000000	      0.00000000	      0.00000000	      0.00000000	      0.00000000	      0.00000000	      0.00000000	      0.00000000
      4.37000000	      0.00000000	     -0.00000000	      0.00000000	      0.00000000	      0.00000000	      0.00000000	      0.00000000	      0.00000000	      0.00000000	     -4.03401041	     -0.63367271	   -352.08172607	   -345.55853360	  -1079.80177973	      0.00000000	     -0.00000000	      0.00000000	   8004.40537216	      8.78236800	      3.32568950	   -409.13385010	   -327.32935314	   -755.65724531	      0.00000000	      0.00000000	     -0.00000000	  -7032.96884537	      0.00000000	     -0.00000000	      0.00000000	      0.00000000	      0.00000000	      0.00000000	      0.00000000	      0.00000000	      0.00000000
